<svg xmlns="http://www.w3.org/2000/svg" width="1140" height="640" viewBox="70 360 1140 640">
  <g>
    <path d="M413.259,818H374.244v-7.842a107.374,107.374,0,0,1-41.058,8.343c-18.953,0-41.406-5.8-54.793-16.323-13.509-10.619-20.934-24.654-20.893-39.516.037-14.739,7.356-28.593,20.613-39.01,7.577-5.952,21.22-10.382,31.057-13.091a32.285,32.285,0,0,1-8.281-23.293c0-28.527,19.76-39.639,21.279-40.629,31.852-20.8,74.1,2.525,74.1,40.569v92.938a50.388,50.388,0,0,0,17,37.866Zm-39.021-15.19v-75.07c-.66-.56-1.3-1.149-1.993-1.694a64.1,64.1,0,0,0-36.92-12.562,57.029,57.029,0,0,0-37.179,11c-12.453,9.779-18.991,21.379-17.935,37.4a57.9,57.9,0,0,0,22.568,41.406c20.582,16.189,49.625,16.84,69.055,1.557.831-.635,1.622-1.323,2.4-2.027Zm-62.3-92.965a88.983,88.983,0,0,1,20.7-2.4h4.838a85.4,85.4,0,0,1,36.765,8.094V671.868c0-25.108-25.242-25.108-25.242-25.108C305.017,646.76,296.537,693.176,311.941,709.844Z" fill="#f4f3ef"></path>
    <path d="M582.3,844.745q0,22.014-21.621,38.916t-56.615,16.905q-28.707,0-44.047-11.208a35.042,35.042,0,0,1-15.329-29.688q0-28.7,33.028-38.141-52.3,1.974-52.3-30.276a24.567,24.567,0,0,1,11.017-20.635,38.522,38.522,0,0,1,11.688-5.694A76.667,76.667,0,0,1,539.1,644.129a48.545,48.545,0,0,1,29.608-31.114l.666-.265v19.9l-.287.127c-1.167.523-2.288,1.025-3.39,1.507-9.508,4.187-16.432,7.232-20.575,13.362a76.867,76.867,0,0,1-41.366,141.492c-14.275,0-31.933-7.049-44.047-14.654l-3.054-1.728c-1.806-1.42-3.512-2.927-5.162-4.48a21.083,21.083,0,0,0-6.8,3.312,14.409,14.409,0,0,0-6.688,11.4q0,18.861,29.094,18.863h60.939q28.7,0,41.481,12.977A41.338,41.338,0,0,1,582.3,844.745Zm-65.378-67.184c28.3,0,48.006-21.071,48.006-50.989,0-41.015-36.067-79.793-74.2-79.793-28.291,0-48,21.07-48,50.989,0,41.02,36.055,79.793,74.2,79.793Zm51.232,73.077q0-29.087-46.388-29.093H488.728q-40.1,9.437-40.1,37.745a31.63,31.63,0,0,0,14.352,27.328q14.357,10.027,41.877,10.028,31.845,0,47.567-14.358t15.726-31.65Z" fill="#f4f3ef"></path>
    <path d="M946.281,727.842a89.185,89.185,0,0,1-3.191,25.043,92.341,92.341,0,0,1-145.651,48.529,91.382,91.382,0,0,1-13.514-12.453c-3.658-4.128-10.037-9.894-7.528-15.827,1.4-3.313,2.674-6.5,3.77-9.929a31.49,31.49,0,0,0,2.042-6.226,178.665,178.665,0,0,0,34.766,34.557,91.116,91.116,0,0,0,45.239,17.7,61.466,61.466,0,0,0,45.662-14.3c16.5-14.813,21.933-39.016,19.271-61.039a105.427,105.427,0,0,0-54.205-79.033c-19.585-10.417-44.276-14.029-63.769-3.425a58.381,58.381,0,0,0-27.213,35.379c-8.287,28.923,4.178,62.6-12.58,89.264q-1.082,1.725-2.31,3.368c-16.778,22.453-45.143,39.912-73.162,42.671a88.942,88.942,0,0,1-51.92-11.258,93.087,93.087,0,0,1,26.5-172.372A94.335,94.335,0,0,1,738.9,653.123a92.9,92.9,0,0,1,15.308,12.8,55,55,0,0,1,11.021,13.565,17.746,17.746,0,0,1-.825,13.938,139.784,139.784,0,0,0-4.748,13.592c-.374,1.386-2.989,7.572-2.422,8.848-10.439-23.4-25.959-45.469-48.134-58.308s-51.811-14.71-72.789,0c-17.294,12.142-26.413,33.882-26.151,55s9.028,41.487,21.587,58.48a106.655,106.655,0,0,0,30.068,28.33,71.719,71.719,0,0,0,39.539,10.869,62.335,62.335,0,0,0,51.577-32.512c13.35-25.28,7.88-55.254,15.349-82.1A77.069,77.069,0,0,1,793.76,657.6,95.4,95.4,0,0,1,854.381,635.8a91.128,91.128,0,0,1,58.987,21.027A95.506,95.506,0,0,1,946.281,727.842Z" fill="#f4f3ef"></path>
    <path d="M1131.424,818h-20.086v.015H1089.32V818h-18.975q.966-.694,1.9-1.436a46.068,46.068,0,0,0,17.07-33.915V695.732q0-25.563-10.027-40.3t-37.154-14.75q-24.772,0-38.729,14.943-13.851,14.826-13.944,43.626v.776h0v78.532a48.1,48.1,0,0,0,17.982,37.845c.682.544,1.376,1.077,2.1,1.591h-20.08v.015H967.452v-.015H948.461c.65-.461,1.282-.934,1.9-1.436a46.026,46.026,0,0,0,17.076-33.981V758.981h0V680.038a48.011,48.011,0,0,0-17.979-37.416c-.688-.545-1.385-1.077-2.1-1.591l41.976.044h.115v31.852q11.8-36.18,55.438-36.176,38.143,0,52.3,16.117t14.159,49.152v75.989a50.7,50.7,0,0,0,.6,8.365,48.587,48.587,0,0,0,17.4,30.031Q1130.356,817.223,1131.424,818Z" fill="#f4f3ef"></path>
    <path d="M248.947,783.342h0q-10.227,34.4-46,34.4-18.879,0-25.364-15.821T171.1,757.2V657.887h0V549.43c.044-1.084.311-2.12.417-3.191H148.576a70.348,70.348,0,0,1,.51,7.985V756.275q0,66.051,53.86,66.045,38.916,0,49.927-38.987Z" fill="#f4f3ef"></path>
  </g>
  <g>
    <polygon points="380.18 487.005 385.322 505.774 366.402 501.19 361.976 505.766 384.238 527.391 388.656 522.841 375.394 509.968 392.299 514.02 393.459 512.817 388.9 496.05 402.159 508.921 406.733 504.193 384.47 482.589 380.18 487.005" fill="#f4f3ef"></polygon>
    <path d="M427.045,448.067l5.9,33.755,5.711-3.982L437,469.285l10.765-7.477,7.481,4.486,5.94-4.128-29.562-17.278Zm8.817,15.209L434,453.434l8.563,5.193Z" fill="#f4f3ef"></path>
    <polygon points="477.997 417.754 491.516 445.755 497.428 442.89 483.918 414.895 477.997 417.754" fill="#f4f3ef"></polygon>
    <polygon points="545.467 392.134 550.884 410.622 530.087 396.662 524.728 398.234 533.482 428.065 539.79 426.197 534.38 407.73 555.182 421.694 560.541 420.113 551.787 390.284 545.467 392.134" fill="#f4f3ef"></polygon>
    <path d="M665.265,393.015a7.117,7.117,0,0,0,.741-.639,7.34,7.34,0,0,0,.072-10.4,10.457,10.457,0,0,0-7.55-2.934l-18.614-.376-.653,31.026,18.913.375a10.756,10.756,0,0,0,8.272-2.56,9.1,9.1,0,0,0,3.094-6.717A7.945,7.945,0,0,0,665.265,393.015Zm-3.876-4.55a3.181,3.181,0,0,1-1.2,2.134,3.238,3.238,0,0,1-2.434.651l-11.516-.24.117-6.186,11.589.242a3.629,3.629,0,0,1,2.691.97,2.823,2.823,0,0,1,.779,2.039A3.165,3.165,0,0,1,661.389,388.465Zm1.373,12.1a3.544,3.544,0,0,1-1.024,2.414,4.472,4.472,0,0,1-3.188,1.1l-12.6-.266.15-7.229,12.608.273a4.358,4.358,0,0,1,3.143,1.428A3.239,3.239,0,0,1,662.762,400.565Z" fill="#f4f3ef"></path>
    <polygon points="706.213 414.958 732.208 420.416 733.448 414.52 713.876 410.415 715.34 403.421 726.453 405.755 727.679 399.865 716.567 397.531 717.77 391.832 736.275 395.709 737.504 389.816 712.592 384.584 706.213 414.958" fill="#f4f3ef"></polygon>
    <path d="M787.46,406.192l-25.123,23.284,6.441,2.64,6.287-6.038,12.139,4.973.288,8.729,6.687,2.74-1.561-34.22Zm-.432,18.748-7.541-3.092,7.252-6.929Z" fill="#f4f3ef"></path>
    <path d="M853.168,439.5c-.212-.142-.427-.28-.646-.412a16.422,16.422,0,0,0-17.014,28.093,21.414,21.414,0,0,0,11.532,3.363,21.132,21.132,0,0,0,4.6-.5l.731-.164-1.362-6.136-.752.2a14.65,14.65,0,0,1-11.394-1.738,10.407,10.407,0,0,1,11.08-17.6,15.076,15.076,0,0,1,6.14,8.591l.185.684,6.211-1.3-.217-.774A21.536,21.536,0,0,0,853.168,439.5Z" fill="#f4f3ef"></path>
    <polygon points="913.277 489.087 905.532 497.186 894.994 487.092 902.734 479.003 897.987 474.452 876.474 496.938 881.209 501.491 890.812 491.462 901.35 501.556 891.763 511.584 896.519 516.125 918.024 493.639 913.277 489.087" fill="#f4f3ef"></polygon>
  </g>
</svg>