<?xml version="1.0"?>
<svg xmlns="http://www.w3.org/2000/svg" width="111" height="40" viewBox="0 0 111 40" fill="none">
  <g clip-path="url(#clip0_573_2124)">
    <path d="M18.4426 18.47C19.2084 18.2885 19.9929 18.1975 20.7799 18.1991H21.326C22.7603 18.1909 24.1784 18.5027 25.4768 19.112V14.1816C25.4768 11.3472 22.6273 11.3472 22.6273 11.3472C17.6616 11.3472 16.704 16.5874 18.4433 18.4693M25.4754 28.9641V20.4903C25.4033 20.4269 25.3313 20.3606 25.2506 20.2994C24.0424 19.4051 22.5855 18.9094 21.0825 18.8814C19.5822 18.7924 18.0979 19.2311 16.887 20.1214C16.2075 20.5844 15.6624 21.2188 15.3069 21.9602C14.9513 22.7016 14.798 23.5238 14.8624 24.3436C14.9355 25.2572 15.1998 26.1453 15.6384 26.9501C16.0769 27.755 16.6798 28.4586 17.408 29.0153C18.5046 29.9034 19.865 30.4025 21.2758 30.4343C22.6867 30.4661 24.0682 30.0289 25.2038 29.1911C25.2974 29.119 25.3875 29.0419 25.4754 28.9627V28.9641ZM29.8805 30.6789H25.4754V29.7941C24.0075 30.4093 22.4327 30.7293 20.8411 30.7358C18.6387 30.7684 16.4792 30.1252 14.6535 28.8928C13.9429 28.3816 13.3602 27.713 12.9511 26.9391C12.542 26.1653 12.3175 25.3072 12.2953 24.4322C12.3191 23.5688 12.5414 22.7226 12.9448 21.9589C13.3482 21.1953 13.9221 20.5347 14.6218 20.0285C15.697 19.3384 16.8829 18.8385 18.1277 18.5507C17.8064 18.1955 17.5583 17.7803 17.3976 17.3291C17.2368 16.8778 17.1667 16.3993 17.1911 15.9209C17.152 15.0126 17.3535 14.1102 17.7753 13.3048C18.1972 12.4995 18.8243 11.8199 19.5932 11.3349C20.4143 10.8072 21.3623 10.5106 22.3377 10.4763C23.3131 10.442 24.2797 10.6713 25.1358 11.14C25.9918 11.6087 26.7057 12.2995 27.2023 13.1397C27.6989 13.9799 27.9598 14.9384 27.9575 15.9144V26.4056C27.9555 27.2136 28.1256 28.0128 28.4565 28.7498C28.7875 29.4869 29.2717 30.145 29.8769 30.6804L29.8805 30.6789Z" fill="#427380"></path>
    <path d="M47.3664 34.3635C47.3664 32.1742 45.6209 31.0795 42.1298 31.0795H38.3998C35.3824 31.7899 33.8736 33.2102 33.8736 35.3405C33.8577 35.9503 33.9983 36.5541 34.2819 37.0942C34.5656 37.6343 34.9829 38.0927 35.494 38.4257C36.5733 39.1808 38.1488 39.5583 40.2205 39.5583C42.6174 39.5583 44.4076 39.0179 45.5911 37.9372C46.1266 37.5044 46.5623 36.9611 46.8686 36.3445C47.1748 35.7279 47.3444 35.0524 47.3657 34.3642L47.3664 34.3635ZM41.583 26.1138C44.777 26.1138 47.0026 23.7361 47.0026 20.3584C47.0026 15.7285 42.931 11.3522 38.6253 11.3522C35.4314 11.3522 33.2057 13.7298 33.2057 17.109C33.2057 21.7396 37.2758 26.1152 41.5815 26.1152L41.583 26.1138ZM48.9631 33.6985C48.9631 35.3552 48.1494 36.8202 46.522 38.0935C44.6696 39.4362 42.4158 40.1092 40.1305 40.0021C37.969 40.0021 36.3118 39.5807 35.159 38.7377C34.6145 38.3671 34.1712 37.8665 33.8692 37.2811C33.5672 36.6958 33.4162 36.0444 33.4298 35.3859C33.4298 33.2244 34.6727 31.7892 37.1584 31.0802C33.2197 31.2291 31.2503 30.0897 31.2503 27.6621C31.2477 27.2012 31.36 26.7469 31.5771 26.3403C31.7943 25.9337 32.1094 25.5877 32.4939 25.3335C32.894 25.0458 33.3401 24.8282 33.8131 24.6901C32.4005 23.2054 31.5605 21.2676 31.4427 19.2217C31.325 17.1757 31.937 15.1544 33.17 13.5174C34.4029 11.8804 36.1768 10.7341 38.1757 10.2825C40.1747 9.83082 42.269 10.1032 44.086 11.051C44.3361 10.2482 44.7676 9.51381 45.3472 8.90469C45.9269 8.29557 46.639 7.82812 47.4284 7.53857L47.5005 7.50903V9.75627L47.468 9.77068L47.0854 9.94072C46.0119 10.4134 45.2302 10.757 44.7625 11.4494C46.3359 12.463 47.5395 13.958 48.1936 15.7116C48.8478 17.4651 48.9174 19.3831 48.3923 21.1795C47.8671 22.9759 46.7752 24.5544 45.2796 25.6794C43.7839 26.8045 41.9645 27.4158 40.093 27.4222C38.3218 27.3018 36.6107 26.7314 35.1215 25.7651L34.7771 25.5698C34.5725 25.4099 34.3801 25.2391 34.1943 25.0655C33.9177 25.1426 33.6575 25.2693 33.4262 25.4394C33.2067 25.5779 33.0235 25.7671 32.8921 25.991C32.7608 26.2149 32.685 26.467 32.6711 26.7262C32.6711 28.1456 33.7658 28.8555 35.9552 28.856H42.8345C44.996 28.856 46.5571 29.3443 47.5177 30.3208C47.9738 30.757 48.3366 31.2812 48.5842 31.8616C48.8319 32.4421 48.9593 33.0667 48.9587 33.6978" fill="#427380"></path>
    <path d="M90.0532 20.5011C90.0679 21.4558 89.9466 22.4078 89.6929 23.3284C89.1696 25.1352 88.1715 26.7687 86.8025 28.0589C85.4336 29.3491 83.7439 30.2488 81.9092 30.6642C80.0746 31.0797 78.1621 30.9959 76.3709 30.4214C74.5796 29.8469 72.9751 28.8028 71.7244 27.3977C71.3115 26.9323 70.5917 26.281 70.8742 25.6109C71.032 25.237 71.1761 24.8774 71.3 24.4905C71.401 24.265 71.4783 24.0296 71.5305 23.788C72.6534 25.2625 73.9743 26.5752 75.4558 27.6888C76.9459 28.805 78.7109 29.4957 80.5627 29.6875C81.4862 29.7767 82.4182 29.6798 83.3036 29.4025C84.1889 29.1251 85.0097 28.673 85.7172 28.0728C87.5797 26.4006 88.1936 23.6684 87.8931 21.182C87.6493 19.3185 86.9677 17.5392 85.9042 15.9897C84.8406 14.4402 83.4252 13.1646 81.7739 12.2672C79.5627 11.0899 76.7751 10.6821 74.5754 11.881C73.0624 12.7509 71.9563 14.1854 71.4996 15.8697C70.5629 19.1343 71.9715 22.9364 70.0795 25.9466C69.998 26.0763 69.9109 26.2039 69.8186 26.3271C68.8303 27.637 67.5914 28.7375 66.1741 29.5644C64.7567 30.3914 63.1891 30.9285 61.5624 31.1443C59.5248 31.3275 57.4799 30.884 55.7012 29.8734C53.8326 28.8278 52.3281 27.2363 51.389 25.3121C50.4499 23.3878 50.121 21.2226 50.4464 19.1063C50.7717 16.99 51.7358 15.0235 53.2096 13.4702C54.6833 11.9169 56.5964 10.8509 58.6927 10.4148C61.4566 9.89383 64.3145 10.4878 66.642 12.0669C67.2687 12.4851 67.8484 12.9697 68.3712 13.5123C68.8646 13.9533 69.2847 14.4701 69.6155 15.0433C69.707 15.2983 69.7459 15.5692 69.7298 15.8397C69.7137 16.1102 69.6429 16.3745 69.5218 16.6169C69.3169 17.1187 69.1379 17.6306 68.9857 18.1508C68.9432 18.3072 68.6485 19.0053 68.7127 19.1502C67.5339 16.5074 65.7824 14.0166 63.2787 12.5677C60.7749 11.1188 57.4304 10.9105 55.065 12.5677C54.113 13.2919 53.3482 14.2333 52.8343 15.3134C52.3204 16.3934 52.0724 17.5808 52.1109 18.7762C52.2152 21.1774 53.0663 23.4861 54.5455 25.3803C55.4579 26.6571 56.6109 27.7433 57.9398 28.5779C59.2766 29.4121 60.8279 29.8378 62.4033 29.8028C63.607 29.741 64.7746 29.3711 65.7943 28.7284C66.8139 28.0857 67.6514 27.1919 68.2263 26.1325C69.7329 23.2786 69.1161 19.8952 69.9555 16.864C70.4576 15.1746 71.4609 13.6774 72.8325 12.5706C74.7598 10.9816 77.1794 10.1118 79.6772 10.1101C82.1081 10.091 84.4671 10.9334 86.3361 12.4877C87.4862 13.4855 88.412 14.7157 89.0524 16.0971C89.6929 17.4786 90.0334 18.98 90.0517 20.5025" fill="#427380"></path>
    <path d="M110.953 30.6774H108.686H106.2H104.058C104.131 30.6251 104.203 30.5711 104.274 30.5153C104.848 30.0507 105.318 29.4689 105.65 28.8087C105.982 28.1485 106.17 27.425 106.2 26.6866V16.8763C106.287 15.2805 105.892 13.6956 105.068 12.3263C104.314 11.2167 102.916 10.6615 100.874 10.6605C100.068 10.6153 99.2605 10.7425 98.5066 11.0334C97.7528 11.3243 97.0696 11.7725 96.5024 12.3479C95.4605 13.4637 94.9358 15.1053 94.9281 17.2725V26.2255C94.9225 27.0445 95.1022 27.8543 95.4538 28.594C95.8054 29.3338 96.3198 29.9845 96.9584 30.4973C97.0355 30.5593 97.1141 30.6191 97.1948 30.6774H94.9281H92.446H90.2989C90.3709 30.6249 90.443 30.5723 90.515 30.5153C91.0912 30.0501 91.5613 29.4671 91.8938 28.8054C92.2263 28.1437 92.4136 27.4186 92.4431 26.6787V15.1038C92.4422 14.2928 92.2593 13.4923 91.9079 12.7613C91.5565 12.0303 91.0456 11.3875 90.4127 10.8803C90.3356 10.819 90.2571 10.7585 90.1757 10.7009L94.9144 10.7059H94.9274V14.3012C95.816 11.5782 97.9023 10.2169 101.186 10.2174C104.056 10.2174 106.024 10.8241 107.09 12.0374C108.156 13.2507 108.689 15.1 108.688 17.5852V26.1592C108.684 26.4754 108.707 26.7913 108.755 27.1038C108.971 28.4358 109.67 29.6414 110.719 30.4901C110.796 30.5528 110.873 30.6126 110.954 30.6702" fill="#427380"></path>
    <path d="M11.3306 26.7666C11.0768 27.9301 10.4121 28.9632 9.45835 29.6763C8.50461 30.3895 7.32575 30.7349 6.13794 30.6494C5.53163 30.7031 4.92432 30.5579 4.40785 30.2357C3.89139 29.9136 3.49386 29.4321 3.27539 28.864C2.71968 27.241 2.47143 25.5286 2.54337 23.8147V0.36025C2.54841 0.237765 2.57867 0.121044 2.59092 0H0C0.0363311 0.299109 0.0555757 0.600046 0.05764 0.901346V23.7109C0.05764 28.6819 2.08441 31.1672 6.13794 31.1667C9.06797 31.1667 10.9468 29.6995 11.7744 26.7651L11.3306 26.7666Z" fill="#427380"></path>
    <path d="M107.757 38.7687H108.549V37.3183H110.015V38.7687H110.808V35.1554H110.015V36.5856H108.553V35.1554H107.76L107.757 38.7687ZM103.637 38.7867C103.772 38.7597 103.903 38.7164 104.028 38.6577C104.144 38.602 104.254 38.5336 104.356 38.4538C104.458 38.3716 104.555 38.2818 104.644 38.1851L104.14 37.6742C104.012 37.7956 103.869 37.8998 103.714 37.9841C103.551 38.0643 103.371 38.1034 103.19 38.0979C103.043 38.0997 102.898 38.0689 102.764 38.0078C102.638 37.9498 102.526 37.8664 102.433 37.7629C102.34 37.6571 102.267 37.535 102.217 37.4026C102.165 37.2623 102.139 37.1136 102.139 36.9638V36.9537C102.139 36.8047 102.165 36.6567 102.217 36.5171C102.266 36.3846 102.34 36.2624 102.433 36.1569C102.526 36.0537 102.64 35.9712 102.766 35.9148C102.899 35.8554 103.042 35.8254 103.187 35.8269C103.358 35.8243 103.526 35.8616 103.68 35.9357C103.837 36.0147 103.983 36.1154 104.112 36.2347L104.617 35.6518C104.533 35.5688 104.444 35.4929 104.348 35.4248C104.25 35.3548 104.144 35.2959 104.033 35.249C103.911 35.1982 103.784 35.1601 103.654 35.1352C103.501 35.1064 103.347 35.0927 103.191 35.0941C102.93 35.0898 102.67 35.1389 102.428 35.2382C102.205 35.331 102.003 35.468 101.834 35.641C101.492 35.9944 101.303 36.4679 101.307 36.9595V36.9696C101.306 37.2189 101.353 37.4662 101.446 37.6973C101.535 37.9186 101.667 38.1199 101.835 38.2893C102.002 38.4587 102.202 38.5928 102.423 38.6837C102.656 38.7811 102.907 38.8301 103.16 38.8278C103.32 38.8293 103.479 38.8146 103.635 38.7838M94.6016 38.7658H95.4115L95.7422 37.9552H97.2703L97.6011 38.7658H98.4325L96.8841 35.1266H96.1514L94.6016 38.7658ZM96.026 37.2528L96.5059 36.0805L96.9865 37.2528H96.026ZM88.9745 38.7658H91.721V38.0604H89.7591V37.3032H91.4624V36.5964H89.7591V35.8629H91.6944V35.1554H88.9767L88.9745 38.7658ZM82.7696 38.7658H84.4879C84.6745 38.7677 84.8605 38.7469 85.042 38.7038C85.1949 38.6687 85.34 38.6057 85.47 38.5179C85.5854 38.4391 85.6793 38.3325 85.7431 38.2081C85.8091 38.0738 85.8419 37.9255 85.8389 37.7758V37.7657C85.8507 37.5617 85.7865 37.3604 85.6588 37.2009C85.523 37.0547 85.3536 36.9439 85.1652 36.8781C85.2304 36.8436 85.2915 36.8021 85.3475 36.7542C85.4047 36.7053 85.4549 36.6488 85.4967 36.5863C85.5407 36.5194 85.5751 36.4466 85.599 36.3701C85.6263 36.2817 85.6394 36.1896 85.6379 36.0971V36.087C85.6407 35.9731 85.6202 35.8599 85.5777 35.7542C85.5352 35.6485 85.4716 35.5526 85.3907 35.4724C85.263 35.3586 85.1137 35.2716 84.9517 35.2166C84.7896 35.1617 84.6182 35.1399 84.4476 35.1525H82.7732L82.7696 38.7658ZM83.5441 36.6129V35.8492H84.3287C84.4644 35.8405 84.5994 35.8737 84.7156 35.9443C84.7594 35.9753 84.7946 36.0169 84.818 36.0651C84.8415 36.1133 84.8523 36.1667 84.8496 36.2203V36.2304C84.8531 36.288 84.8405 36.3456 84.8131 36.3965C84.7858 36.4474 84.7448 36.4896 84.6947 36.5186C84.5657 36.5847 84.4216 36.6158 84.2768 36.6086L83.5441 36.6129ZM83.5441 38.0684V37.2758H84.4627C84.6197 37.2631 84.7767 37.2999 84.9116 37.381C84.9567 37.414 84.993 37.4575 85.0174 37.5077C85.0417 37.5579 85.0534 37.6134 85.0514 37.6692V37.6793C85.0554 37.7378 85.0435 37.7962 85.0172 37.8486C84.9908 37.9009 84.9509 37.9452 84.9015 37.9769C84.7756 38.0468 84.6325 38.0797 84.4887 38.072L83.5441 38.0684ZM72.1869 38.7658H72.9715V36.4753L74.7208 38.7723H75.3974V35.1554H74.6171V37.3803L72.9239 35.1554H72.189L72.1869 38.7658ZM68.008 38.7658H68.8005V35.1554H68.008V38.7658ZM61.1063 38.7658H61.9161L62.2468 37.9552H63.775L64.1057 38.7658H64.9372L63.3888 35.1266H62.6568L61.1063 38.7658ZM62.5307 37.2528L63.0106 36.0805L63.4911 37.2528H62.5307ZM54.4568 38.7658H55.2414V36.4256L56.2501 37.9538H56.271L57.2876 36.4098V38.7694H58.0723V35.1554H57.2156L56.266 36.6836L55.3163 35.1554H54.4597L54.4568 38.7658Z" fill="#427380"></path>
  </g>
  <defs>
    <clipPath id="clip0_573_2124">
      <rect width="110.954" height="40" fill="white"></rect>
    </clipPath>
  </defs>
</svg>